TITLE ""
FILE "Disc3Track38.mp3" MP3
  TRACK 01 AUDIO
    TITLE "Disc3Track38_01"
    INDEX 01 00:00:00
  TRACK 02 AUDIO
    TITLE "Disc3Track38_02"
    INDEX 01 00:01:12
  TRACK 03 AUDIO
    TITLE "Disc3Track38_03"
    INDEX 01 00:01:70
  TRACK 04 AUDIO
    TITLE "Disc3Track38_04"
    INDEX 01 00:03:18
  TRACK 05 AUDIO
    TITLE "Disc3Track38_05"
    INDEX 01 00:06:62
  TRACK 06 AUDIO
    TITLE "Disc3Track38_06"
    INDEX 01 00:07:18
  TRACK 07 AUDIO
    TITLE "Disc3Track38_07"
    INDEX 01 00:08:51
  TRACK 08 AUDIO
    TITLE "Disc3Track38_08"
    INDEX 01 00:09:56
  TRACK 09 AUDIO
    TITLE "Disc3Track38_09"
    INDEX 01 00:11:14
  TRACK 10 AUDIO
    TITLE "Disc3Track38_10"
    INDEX 01 00:11:45
  TRACK 11 AUDIO
    TITLE "Disc3Track38_11"
    INDEX 01 00:12:72
  TRACK 12 AUDIO
    TITLE "Disc3Track38_12"
    INDEX 01 00:13:70
  TRACK 13 AUDIO
    TITLE "Disc3Track38_13"
    INDEX 01 00:15:20
  TRACK 14 AUDIO
    TITLE "Disc3Track38_14"
    INDEX 01 00:19:63
  TRACK 15 AUDIO
    TITLE "Disc3Track38_15"
    INDEX 01 00:20:19
  TRACK 16 AUDIO
    TITLE "Disc3Track38_16"
    INDEX 01 00:21:44
  TRACK 17 AUDIO
    TITLE "Disc3Track38_17"
    INDEX 01 00:24:28
  TRACK 18 AUDIO
    TITLE "Disc3Track38_18"
    INDEX 01 00:25:51
  TRACK 19 AUDIO
    TITLE "Disc3Track38_19"
    INDEX 01 00:30:06
  TRACK 20 AUDIO
    TITLE "Disc3Track38_20"
    INDEX 01 00:30:39
  TRACK 21 AUDIO
    TITLE "Disc3Track38_21"
    INDEX 01 00:31:66
  TRACK 22 AUDIO
    TITLE "Disc3Track38_22"
    INDEX 01 00:33:55
  TRACK 23 AUDIO
    TITLE "Disc3Track38_23"
    INDEX 01 00:35:05
  TRACK 24 AUDIO
    TITLE "Disc3Track38_24"
    INDEX 01 00:39:51
  TRACK 25 AUDIO
    TITLE "Disc3Track38_25"
    INDEX 01 00:40:06
  TRACK 26 AUDIO
    TITLE "Disc3Track38_26"
    INDEX 01 00:41:31
  TRACK 27 AUDIO
    TITLE "Disc3Track38_27"
    INDEX 01 00:42:48
  TRACK 28 AUDIO
    TITLE "Disc3Track38_28"
    INDEX 01 00:43:69
  TRACK 29 AUDIO
    TITLE "Disc3Track38_29"
    INDEX 01 00:45:50
  TRACK 30 AUDIO
    TITLE "Disc3Track38_30"
    INDEX 01 00:46:06
  TRACK 31 AUDIO
    TITLE "Disc3Track38_31"
    INDEX 01 00:47:27
  TRACK 32 AUDIO
    TITLE "Disc3Track38_32"
    INDEX 01 00:50:51
  TRACK 33 AUDIO
    TITLE "Disc3Track38_33"
    INDEX 01 00:51:72
  TRACK 34 AUDIO
    TITLE "Disc3Track38_34"
    INDEX 01 00:55:37
  TRACK 35 AUDIO
    TITLE "Disc3Track38_35"
    INDEX 01 00:55:68
  TRACK 36 AUDIO
    TITLE "Disc3Track38_36"
    INDEX 01 00:57:24
  TRACK 37 AUDIO
    TITLE "Disc3Track38_37"
    INDEX 01 00:58:63
  TRACK 38 AUDIO
    TITLE "Disc3Track38_38"
    INDEX 01 01:00:20
  TRACK 39 AUDIO
    TITLE "Disc3Track38_39"
    INDEX 01 01:00:56
  TRACK 40 AUDIO
    TITLE "Disc3Track38_40"
    INDEX 01 01:02:21
  TRACK 41 AUDIO
    TITLE "Disc3Track38_41"
    INDEX 01 01:04:04
  TRACK 42 AUDIO
    TITLE "Disc3Track38_42"
    INDEX 01 01:05:45
  TRACK 43 AUDIO
    TITLE "Disc3Track38_43"
    INDEX 01 01:06:09
  TRACK 44 AUDIO
    TITLE "Disc3Track38_44"
    INDEX 01 01:07:42
  TRACK 45 AUDIO
    TITLE "Disc3Track38_45"
    INDEX 01 01:10:60
  TRACK 46 AUDIO
    TITLE "Disc3Track38_46"
    INDEX 01 01:12:16
  TRACK 47 AUDIO
    TITLE "Disc3Track38_47"
    INDEX 01 01:15:59
  TRACK 48 AUDIO
    TITLE "Disc3Track38_48"
    INDEX 01 01:16:17
  TRACK 49 AUDIO
    TITLE "Disc3Track38_49"
    INDEX 01 01:17:50
  TRACK 50 AUDIO
    TITLE "Disc3Track38_50"
    INDEX 01 01:18:54
  TRACK 51 AUDIO
    TITLE "Disc3Track38_51"
    INDEX 01 01:20:13
  TRACK 52 AUDIO
    TITLE "Disc3Track38_52"
    INDEX 01 01:20:50
  TRACK 53 AUDIO
    TITLE "Disc3Track38_53"
    INDEX 01 01:21:66
  TRACK 54 AUDIO
    TITLE "Disc3Track38_54"
    INDEX 01 01:23:10
  TRACK 55 AUDIO
    TITLE "Disc3Track38_55"
    INDEX 01 01:24:23
  TRACK 56 AUDIO
    TITLE "Disc3Track38_56"
    INDEX 01 01:27:25
  TRACK 57 AUDIO
    TITLE "Disc3Track38_57"
    INDEX 01 01:27:56
  TRACK 58 AUDIO
    TITLE "Disc3Track38_58"
    INDEX 01 01:29:10
  TRACK 59 AUDIO
    TITLE "Disc3Track38_59"
    INDEX 01 01:29:71
  TRACK 60 AUDIO
    TITLE "Disc3Track38_60"
    INDEX 01 01:31:23
  TRACK 61 AUDIO
    TITLE "Disc3Track38_61"
    INDEX 01 01:33:10
  TRACK 62 AUDIO
    TITLE "Disc3Track38_62"
    INDEX 01 01:33:43
  TRACK 63 AUDIO
    TITLE "Disc3Track38_63"
    INDEX 01 01:34:70
  TRACK 64 AUDIO
    TITLE "Disc3Track38_64"
    INDEX 01 01:36:63
  TRACK 65 AUDIO
    TITLE "Disc3Track38_65"
    INDEX 01 01:38:17
